<svg version="1.2" xmlns="http://www.w3.org/2000/svg" viewBox="0 0 1550 826" width="1550" height="826">
	<title>CRAYN</title>
	<defs>
		<clipPath clipPathUnits="userSpaceOnUse" id="cp1">
			<path d="m9679-2560.97v6181.51h-10976v-6181.51z"/>
		</clipPath>
	</defs>
	<style>
		.s0 { fill: #ff6b4d } 
	</style>
	<g id="Clip-Path: Page 1" clip-path="url(#cp1)">
		<g id="Page 1">
			<path id="Path 7" class="s0" d="m126.2 706.2c79.7 79.7 184.5 119.5 289.6 119.5 104.8 0 209.6-39.8 289.6-119.5l374.4-372.6-93.6-93.3-374.4 372.9c-108.3 107.4-284 107.4-392 0l-5.6-5.6c-108-107.7-108-282.5 0-390l4.8-4.8c108-107.6 283.7-107.6 392 0l32.3 32 93.6-93.3-32.3-31.9c-159.7-158.9-419.7-158.9-579.2 0l-4.8 4.7c-159.7 158.9-159.7 417.5 0 576.6zm1297.9-586.9c-80-79.5-184.8-119.2-289.6-119.2-105.1 0-209.9 39.7-289.9 119.2l-374.4 372.6 93.9 93.3 374.4-372.7c108-107.4 283.7-107.4 392 0l5.3 5.6c108.3 107.5 108.3 282.6 0 390l-4.5 4.8c-108.3 107.4-284 107.4-392 0l-32.3-32.2-93.9 93.3 32.6 32.2c159.4 158.9 419.4 158.9 579.2 0l4.8-4.8c159.7-158.9 159.7-417.7 0-576.5z"/>
		</g>
	</g>
</svg>